<?xml version="1.0" encoding="UTF-8"?><svg id="Layer_1" xmlns="http://www.w3.org/2000/svg" viewBox="0 0 230.68 50.98"><defs><style>.cls-1{fill:#00d54b;}</style></defs><path class="cls-1" d="M91.83,19.7c-.2,.12-.45,.17-.68,.12-.23-.05-.44-.18-.59-.37-.7-1-1.63-1.81-2.73-2.36-1.09-.55-2.3-.82-3.52-.78-4.76,0-7.68,3.77-7.68,9.14s2.97,9.21,7.73,9.21c1.24,.03,2.46-.26,3.56-.83,1.1-.58,2.03-1.42,2.7-2.46,.14-.19,.34-.33,.57-.38,.23-.05,.47-.01,.68,.1l2.26,1.31c.12,.06,.23,.15,.32,.26,.09,.11,.15,.23,.18,.37,.03,.13,.04,.27,.01,.41-.03,.14-.08,.26-.16,.38-1.11,1.66-2.61,3.01-4.38,3.92-1.77,.91-3.74,1.37-5.73,1.31-7.61,0-12.77-5.52-12.77-13.57s5.16-13.5,12.65-13.5c1.96-.05,3.9,.37,5.65,1.24,1.75,.87,3.27,2.15,4.41,3.74,.08,.11,.13,.23,.16,.36,.03,.13,.03,.26,0,.39-.02,.13-.08,.25-.15,.36-.07,.11-.17,.2-.28,.27l-2.24,1.34Z"/><path class="cls-1" d="M108.46,37.58v-1.09c-1.19,1.53-2.85,2.49-5.52,2.49-3.95,0-6.69-2.16-6.69-5.95,0-4.72,4.21-5.53,6.8-5.89,2.78-.4,5.16-.59,5.16-2.42,0-1.61-1.86-2.05-3.44-2.05-1.81,.03-3.59,.48-5.19,1.31-.11,.06-.23,.1-.36,.11-.13,.01-.25,0-.38-.04-.12-.04-.23-.1-.33-.18-.1-.08-.17-.18-.23-.3l-.82-1.7c-.11-.22-.13-.47-.06-.71,.07-.23,.23-.43,.45-.55,2.25-1.2,4.76-1.83,7.31-1.83,4.53,0,7.73,1.86,7.73,6.37v12.43c0,.25-.1,.49-.28,.67-.18,.18-.42,.28-.67,.28h-2.49c-.13,0-.26-.01-.38-.06-.12-.05-.23-.11-.32-.2-.09-.09-.17-.2-.22-.31-.05-.12-.08-.25-.08-.37h0Zm-.26-8.6c-.87,.66-2.49,.88-4.21,1.19-1.72,.31-3.15,.77-3.15,2.64,0,1.72,1.24,2.52,3.04,2.52,2.23,0,4.31-1.24,4.31-4.13v-2.21Z"/><path class="cls-1" d="M116.98,33.61c.16-.19,.39-.3,.63-.33,.25-.02,.49,.05,.68,.2,1.59,1.2,3.54,1.83,5.53,1.78,2.05,0,3.57-.66,3.57-2.27,0-1.46-1.39-1.75-4.76-2.34-3.57-.59-6.98-1.78-6.98-5.85s3.66-6.03,7.83-6.03c2.62-.04,5.17,.8,7.25,2.38,.1,.08,.19,.18,.25,.29,.06,.11,.1,.24,.11,.37,.01,.13,0,.26-.04,.38-.04,.12-.1,.24-.19,.33l-1.19,1.4c-.16,.19-.38,.31-.62,.34-.24,.03-.49-.04-.69-.19-1.47-1.07-3.24-1.64-5.06-1.62-1.75,0-3.29,.51-3.29,1.9,0,1.54,2.15,1.83,4.31,2.2,4.61,.8,7.54,2.12,7.54,5.95,0,4.02-3.22,6.51-8.33,6.51-2.79,.09-5.53-.81-7.73-2.52-.1-.08-.18-.18-.24-.29-.06-.11-.1-.24-.11-.36-.01-.13,0-.26,.04-.38,.04-.12,.1-.23,.18-.33l1.3-1.51Z"/><path class="cls-1" d="M134.7,37.59V13.37c0-.25,.1-.49,.28-.67,.18-.18,.42-.28,.67-.28h2.74c.25,0,.5,.1,.67,.28,.18,.18,.28,.42,.28,.67v8.27c.68-.91,1.57-1.65,2.6-2.14s2.15-.74,3.29-.71c4.06,0,6.44,2.89,6.44,7.02v11.78c0,.25-.1,.49-.28,.67-.18,.18-.42,.28-.67,.28h-2.74c-.25,0-.5-.1-.67-.28-.18-.18-.28-.42-.28-.67v-10.71c0-2.05-.66-3.91-3.29-3.91-2.49,0-4.39,1.75-4.39,4.68v9.95c0,.25-.1,.49-.28,.67-.18,.18-.42,.28-.67,.28h-2.74c-.13,0-.25-.02-.37-.07-.12-.05-.22-.12-.31-.21-.09-.09-.16-.2-.21-.31-.05-.12-.07-.24-.07-.37h0Z"/><path class="cls-1" d="M181.85,37.9l-1.97-5.83h-9.98l-1.98,5.83c-.06,.19-.19,.35-.35,.47-.16,.12-.35,.18-.55,.18h-3.22c-.15,0-.3-.04-.44-.11s-.25-.17-.34-.3c-.09-.13-.14-.27-.16-.42-.02-.15,0-.31,.05-.45l8.99-24.22c.07-.18,.19-.33,.35-.44,.16-.11,.35-.16,.54-.16h4.4c.19,0,.39,.06,.55,.17,.16,.11,.28,.27,.35,.45l8.95,24.21c.05,.14,.07,.3,.05,.45-.02,.15-.08,.3-.17,.42-.09,.13-.21,.23-.34,.3-.14,.07-.29,.11-.44,.11h-3.4c-.2,0-.39-.07-.55-.19-.16-.12-.28-.29-.34-.48Zm-6.91-21.23l-3.84,11.34h7.54l-3.69-11.34Z"/><path class="cls-1" d="M193.93,20.18v1.5c.68-.94,1.57-1.69,2.61-2.19,1.04-.5,2.18-.74,3.34-.7,5.27,0,8.67,4.35,8.67,10.06s-3.4,10.11-8.67,10.11c-1.16,.04-2.31-.2-3.34-.71-1.04-.51-1.93-1.27-2.6-2.22v7.89c0,.25-.1,.49-.28,.67-.18,.18-.42,.28-.67,.28h-2.74c-.25,0-.5-.1-.67-.28-.18-.18-.28-.42-.28-.67V20.13c0-.25,.1-.49,.28-.67,.18-.18,.42-.28,.67-.28h2.74c.13,0,.26,.03,.38,.08,.12,.05,.23,.13,.31,.22,.09,.09,.16,.2,.2,.33,.05,.12,.07,.25,.06,.38Zm4.97,14.74c3.22,0,4.76-2.75,4.76-6.07s-1.57-6-4.76-6-4.97,2.67-4.97,6,1.7,6.07,4.97,6.07Z"/><path class="cls-1" d="M216.06,20.18v1.5c.68-.93,1.57-1.69,2.61-2.19,1.04-.5,2.18-.74,3.34-.7,5.27,0,8.67,4.35,8.67,10.06s-3.4,10.11-8.67,10.11c-1.16,.04-2.31-.2-3.34-.71-1.04-.51-1.93-1.27-2.61-2.21v7.89c0,.25-.1,.49-.28,.67-.18,.18-.42,.28-.67,.28h-2.74c-.25,0-.5-.1-.67-.28-.18-.18-.28-.42-.28-.67V20.13c0-.25,.1-.49,.28-.67,.18-.18,.42-.28,.67-.28h2.74c.13,0,.26,.02,.38,.08,.12,.05,.23,.12,.32,.22,.09,.09,.16,.2,.2,.33,.04,.12,.06,.25,.06,.38h0Zm4.98,14.74c3.22,0,4.76-2.75,4.76-6.07s-1.57-6-4.76-6-4.98,2.67-4.98,6,1.72,6.07,4.98,6.07Z"/><path class="cls-1" d="M11.75,0C5.26,0,0,5.26,0,11.75v27.48c0,6.49,5.26,11.75,11.75,11.75h27.21c6.49,0,11.75-5.26,11.75-11.75V11.75c0-6.49-5.26-11.75-11.75-11.75H11.75Zm21.84,18.96c-1.94-1.64-4.39-2.54-6.92-2.54-2.09,0-4.18,.69-4.18,2.61,0,1.75,1.86,2.44,4.15,3.28,.22,.08,.45,.17,.68,.25,4.53,1.53,8.26,3.4,8.26,7.84,0,4.82-3.74,8.12-9.87,8.49l-.56,2.58c-.1,.48-.53,.83-1.03,.82h-3.85c-.31,0-.61-.15-.81-.4-.2-.25-.27-.57-.21-.88l.6-2.73c-2.31-.59-4.44-1.75-6.18-3.38-.2-.19-.32-.46-.32-.74s.11-.55,.32-.74l2.14-2.09c.4-.4,1.05-.4,1.46,0,1.96,1.87,4.57,2.89,7.28,2.85,2.79,0,4.68-1.18,4.68-3.06,0-1.69-1.55-2.26-4.5-3.34-.31-.11-.64-.23-.98-.36-3.78-1.35-7.37-3.28-7.37-7.76,0-5.19,4.33-7.72,9.44-7.97l.54-2.63c.11-.48,.53-.82,1.02-.82h3.84c.31,0,.61,.14,.81,.38,.2,.24,.28,.56,.21,.87l-.6,2.94c1.95,.64,3.76,1.65,5.33,2.98,.22,.19,.34,.45,.35,.74,.01,.28-.1,.56-.3,.76l-1.99,2c-.4,.39-1.04,.41-1.45,.03Z"/></svg>