<?xml version="1.0" encoding="UTF-8"?><svg id="Layer_1" xmlns="http://www.w3.org/2000/svg" viewBox="0 0 380 96.38"><defs><style>.cls-1{fill:#012169;}.cls-2{fill:#009cde;}.cls-3{fill:#003087;}</style></defs><path class="cls-3" d="M69.55,7.27C65.08,2.18,57.01,0,46.69,0H16.74c-2.11,0-3.91,1.54-4.24,3.62L.03,82.72c-.25,1.56,.96,2.97,2.54,2.97H21.07l4.64-29.46-.14,.92c.33-2.08,2.11-3.62,4.22-3.62h8.79c17.26,0,30.78-7.01,34.73-27.3,.12-.6,.22-1.18,.31-1.75,1.18-7.5,0-12.6-4.06-17.22"/><path class="cls-2" d="M295.93,44.91c-1.13,7.42-6.8,7.42-12.28,7.42h-3.12l2.19-13.86c.13-.84,.85-1.45,1.7-1.45h1.43c3.73,0,7.26,0,9.08,2.12,1.09,1.27,1.42,3.16,1.01,5.76m-2.39-19.37h-20.68c-1.42,0-2.62,1.03-2.84,2.43l-8.36,53.02c-.17,1.05,.65,1.99,1.7,1.99h10.61c.99,0,1.83-.72,1.99-1.7l2.37-15.03c.22-1.4,1.42-2.43,2.84-2.43h6.54c13.62,0,21.48-6.59,23.54-19.66,.93-5.71,.04-10.2-2.64-13.34-2.94-3.46-8.15-5.28-15.07-5.28"/><path class="cls-3" d="M148.44,44.91c-1.13,7.42-6.8,7.42-12.28,7.42h-3.12l2.19-13.86c.13-.84,.85-1.45,1.7-1.45h1.43c3.73,0,7.26,0,9.08,2.12,1.09,1.27,1.42,3.16,1.01,5.76m-2.39-19.37h-20.68c-1.42,0-2.62,1.03-2.84,2.43l-8.36,53.02c-.17,1.05,.64,1.99,1.7,1.99h9.88c1.41,0,2.62-1.03,2.84-2.42l2.26-14.31c.22-1.4,1.42-2.43,2.84-2.43h6.54c13.62,0,21.48-6.59,23.54-19.66,.93-5.71,.04-10.2-2.64-13.34-2.94-3.46-8.15-5.28-15.07-5.28"/><path class="cls-3" d="M194.06,63.94c-.96,5.66-5.45,9.46-11.18,9.46-2.87,0-5.17-.93-6.65-2.67-1.46-1.73-2.02-4.2-1.55-6.95,.89-5.61,5.45-9.53,11.1-9.53,2.81,0,5.09,.93,6.6,2.7,1.52,1.78,2.11,4.26,1.68,7m13.8-19.27h-9.9c-.85,0-1.57,.62-1.7,1.46l-.43,2.77-.69-1c-2.15-3.11-6.93-4.15-11.7-4.15-10.94,0-20.28,8.29-22.1,19.92-.95,5.8,.4,11.34,3.69,15.21,3.02,3.55,7.33,5.03,12.47,5.03,8.82,0,13.71-5.66,13.71-5.66l-.44,2.75c-.17,1.05,.64,1.99,1.7,1.99h8.92c1.42,0,2.62-1.03,2.84-2.42l5.35-33.9c.17-1.05-.65-1.99-1.7-1.99"/><path class="cls-2" d="M341.55,63.94c-.96,5.66-5.45,9.46-11.18,9.46-2.87,0-5.17-.93-6.65-2.67-1.47-1.73-2.02-4.2-1.55-6.95,.89-5.61,5.45-9.53,11.1-9.53,2.81,0,5.09,.93,6.6,2.7,1.52,1.78,2.11,4.26,1.68,7m13.8-19.27h-9.9c-.85,0-1.57,.62-1.7,1.46l-.43,2.77-.69-1c-2.14-3.11-6.92-4.15-11.7-4.15-10.94,0-20.28,8.29-22.1,19.92-.95,5.8,.4,11.34,3.69,15.21,3.02,3.55,7.33,5.03,12.47,5.03,8.82,0,13.71-5.66,13.71-5.66l-.44,2.75c-.17,1.05,.64,1.99,1.7,1.99h8.92c1.42,0,2.62-1.03,2.84-2.42l5.35-33.9c.17-1.05-.65-1.99-1.7-1.99"/><path class="cls-3" d="M260.6,44.67h-9.95c-.95,0-1.84,.47-2.38,1.26l-13.73,20.22-5.82-19.43c-.37-1.22-1.48-2.05-2.75-2.05h-9.78c-1.18,0-2.01,1.16-1.63,2.28l10.96,32.17-10.31,14.54c-.81,1.14,0,2.72,1.41,2.72h9.94c.94,0,1.82-.46,2.36-1.23l33.1-47.77c.79-1.14-.02-2.71-1.42-2.71"/><path class="cls-2" d="M367.02,27l-8.49,53.99c-.17,1.05,.64,1.99,1.7,1.99h8.54c1.41,0,2.62-1.03,2.84-2.43l8.37-53.02c.17-1.05-.64-1.99-1.7-1.99h-9.55c-.85,0-1.57,.62-1.7,1.46"/><path class="cls-3" d="M69.55,7.27C65.08,2.18,57.01,0,46.69,0H16.74c-2.11,0-3.91,1.54-4.24,3.62L.03,82.72c-.25,1.56,.96,2.97,2.54,2.97H21.07l4.64-29.46-.14,.92c.33-2.08,2.11-3.62,4.22-3.62h8.79c17.26,0,30.78-7.01,34.73-27.3,.12-.6,.22-1.18,.31-1.75,1.18-7.5,0-12.6-4.06-17.22"/><path class="cls-3" d="M30.7,24.59c.2-1.25,1-2.28,2.08-2.8,.49-.23,1.04-.37,1.62-.37h23.48c2.78,0,5.37,.18,7.74,.56,.68,.11,1.34,.23,1.98,.38,.64,.14,1.26,.3,1.86,.48,.3,.09,.6,.18,.89,.27,1.17,.39,2.25,.84,3.25,1.37,1.18-7.5,0-12.6-4.06-17.22C65.08,2.18,57.02,0,46.69,0H16.74C14.63,0,12.84,1.54,12.5,3.62L.03,82.72c-.25,1.56,.96,2.97,2.54,2.97H21.07l4.64-29.46,4.99-31.64Z"/><path class="cls-2" d="M73.61,24.49h0c-.09,.57-.19,1.15-.31,1.75-3.95,20.28-17.47,27.3-34.73,27.3h-8.79c-2.11,0-3.89,1.54-4.22,3.62l-4.5,28.53-1.28,8.09c-.22,1.37,.84,2.6,2.22,2.6h15.59c1.84,0,3.42-1.34,3.7-3.16l.15-.79,2.94-18.62,.19-1.03c.29-1.82,1.86-3.16,3.7-3.16h2.33c15.1,0,26.92-6.13,30.38-23.88,1.44-7.41,.7-13.61-3.12-17.95-1.16-1.32-2.59-2.4-4.27-3.29"/><path class="cls-1" d="M69.47,22.84c-.6-.18-1.22-.34-1.86-.48-.64-.14-1.3-.27-1.98-.38-2.37-.38-4.96-.57-7.75-.57h-23.48c-.58,0-1.13,.13-1.62,.37-1.09,.52-1.89,1.54-2.08,2.8l-4.99,31.64-.14,.92c.33-2.08,2.11-3.62,4.22-3.62h8.79c17.26,0,30.78-7.01,34.73-27.3,.12-.6,.22-1.18,.31-1.75-1-.53-2.08-.98-3.25-1.37-.29-.1-.59-.19-.89-.28"/></svg>