<?xml version="1.0" encoding="utf-8"?>
<!-- Generator: Adobe Illustrator 26.5.0, SVG Export Plug-In . SVG Version: 6.00 Build 0)  -->
<svg version="1.1" id="Layer_1" xmlns="http://www.w3.org/2000/svg" xmlns:xlink="http://www.w3.org/1999/xlink" x="0px" y="0px"
	 viewBox="0 0 218.44 54.78" style="enable-background:new 0 0 218.44 54.78;" xml:space="preserve">
<style type="text/css">
	.st0{fill:#8B0B0B;}
</style>
<g>
	<path class="st0" d="M12.67,12.3H0V0.99h39.93V12.3H27.26v31.96H12.67V12.3z"/>
	<path class="st0" d="M43.7,0.99h14.59v31.96h19.53v11.31H43.7V0.99z"/>
	<path class="st0" d="M79.49,22.62C79.49,9.33,89.69,0,103.6,0c8.47,0,15.14,3.09,19.41,8.65l-9.21,8.22
		c-2.53-3.21-5.56-5.07-9.46-5.07c-6.06,0-10.14,4.2-10.14,10.82c0,6.61,4.08,10.82,10.14,10.82c3.89,0,6.92-1.85,9.46-5.07
		l9.21,8.22c-4.27,5.56-10.94,8.65-19.41,8.65C89.69,45.25,79.49,35.91,79.49,22.62z"/>
	<path class="st0" d="M124.55,22.62C124.55,9.33,134.75,0,148.66,0c8.47,0,15.14,3.09,19.41,8.65l-9.21,8.22
		c-2.53-3.21-5.56-5.07-9.46-5.07c-6.06,0-10.14,4.2-10.14,10.82c0,6.61,4.08,10.82,10.14,10.82c3.89,0,6.92-1.85,9.46-5.07
		l9.21,8.22c-4.26,5.56-10.94,8.65-19.41,8.65C134.75,45.25,124.55,35.91,124.55,22.62z"/>
	<path class="st0" d="M169.61,22.62C169.61,9.52,179.93,0,194.03,0s24.42,9.52,24.42,22.62s-10.32,22.62-24.42,22.62
		S169.61,35.73,169.61,22.62z M203.73,22.62c0-6.74-4.33-10.82-9.7-10.82s-9.71,4.08-9.71,10.82s4.33,10.82,9.71,10.82
		S203.73,29.36,203.73,22.62z"/>
</g>
<g>
	<path class="st0" d="M3.75,49.52H1.74v-0.37h4.44v0.37H4.16v5.23H3.75V49.52z"/>
	<path class="st0" d="M13.58,49.15v5.6h-0.41v-2.66H9.43v2.66H9.03v-5.6h0.41v2.57h3.74v-2.57H13.58z"/>
	<path class="st0" d="M21.24,54.38v0.37h-3.86v-5.6h3.74v0.37h-3.33v2.21h2.98v0.36h-2.98v2.29H21.24z"/>
	<path class="st0" d="M28.47,49.15h0.41v5.23h3.22v0.37h-3.63V49.15z"/>
	<path class="st0" d="M34.99,49.15h0.41v5.6h-0.41V49.15z"/>
	<path class="st0" d="M39.59,49.52v2.39h2.98v0.37h-2.98v2.47h-0.41v-5.6h3.74v0.37H39.59z"/>
	<path class="st0" d="M49.94,54.38v0.37h-3.86v-5.6h3.74v0.37h-3.33v2.21h2.98v0.36h-2.98v2.29H49.94z"/>
	<path class="st0" d="M56.63,51.95c0-1.63,1.24-2.84,2.9-2.84c0.79,0,1.5,0.26,1.99,0.78l-0.26,0.26c-0.48-0.47-1.06-0.66-1.72-0.66
		c-1.43,0-2.51,1.06-2.51,2.46s1.08,2.46,2.51,2.46c0.66,0,1.24-0.2,1.72-0.67L61.52,54c-0.49,0.52-1.2,0.78-1.99,0.78
		C57.86,54.78,56.63,53.58,56.63,51.95z"/>
	<path class="st0" d="M68.59,54.38v0.37h-3.86v-5.6h3.74v0.37h-3.33v2.21h2.98v0.36h-2.98v2.29H68.59z"/>
	<path class="st0" d="M76.48,49.15v5.6h-0.34l-3.81-4.86v4.86h-0.41v-5.6h0.34l3.81,4.86v-4.86H76.48z"/>
	<path class="st0" d="M81.34,49.52h-2.01v-0.37h4.44v0.37h-2.02v5.23h-0.41V49.52z"/>
	<path class="st0" d="M90.48,54.38v0.37h-3.86v-5.6h3.74v0.37h-3.33v2.21h2.98v0.36h-2.98v2.29H90.48z"/>
	<path class="st0" d="M97.69,54.74l-1.34-1.87c-0.18,0.02-0.35,0.04-0.54,0.04h-1.6v1.83h-0.41v-5.6h2.01c1.41,0,2.25,0.7,2.25,1.89
		c0,0.89-0.48,1.5-1.31,1.75l1.4,1.96H97.69z M95.82,52.55c1.2,0,1.84-0.56,1.84-1.52c0-0.97-0.64-1.52-1.84-1.52h-1.6v3.04H95.82z"
		/>
	<path class="st0" d="M104.77,51.95c0-1.63,1.24-2.84,2.9-2.84c0.79,0,1.5,0.26,1.99,0.78l-0.26,0.26
		c-0.48-0.47-1.06-0.66-1.72-0.66c-1.43,0-2.51,1.06-2.51,2.46s1.08,2.46,2.51,2.46c0.66,0,1.24-0.2,1.72-0.67l0.26,0.26
		c-0.49,0.52-1.2,0.78-1.99,0.78C106.01,54.78,104.77,53.58,104.77,51.95z"/>
	<path class="st0" d="M117.43,49.15v5.6h-0.41v-2.66h-3.74v2.66h-0.41v-5.6h0.41v2.57h3.74v-2.57H117.43z"/>
	<path class="st0" d="M121.18,52.37v-3.22h0.41v3.21c0,1.4,0.67,2.05,1.84,2.05s1.83-0.66,1.83-2.05v-3.21h0.41v3.22
		c0,1.6-0.86,2.41-2.25,2.41C122.02,54.78,121.18,53.97,121.18,52.37z"/>
	<path class="st0" d="M133.29,54.74l-1.34-1.87c-0.18,0.02-0.35,0.04-0.54,0.04h-1.6v1.83h-0.41v-5.6h2.01
		c1.41,0,2.25,0.7,2.25,1.89c0,0.89-0.48,1.5-1.31,1.75l1.4,1.96H133.29z M131.42,52.55c1.2,0,1.84-0.56,1.84-1.52
		c0-0.97-0.64-1.52-1.84-1.52h-1.6v3.04H131.42z"/>
	<path class="st0" d="M136.47,51.95c0-1.63,1.24-2.84,2.9-2.84c0.79,0,1.5,0.26,1.99,0.78l-0.26,0.26
		c-0.48-0.47-1.06-0.66-1.72-0.66c-1.43,0-2.51,1.06-2.51,2.46s1.08,2.46,2.51,2.46c0.66,0,1.24-0.2,1.72-0.67l0.26,0.26
		c-0.49,0.52-1.2,0.78-1.99,0.78C137.71,54.78,136.47,53.58,136.47,51.95z"/>
	<path class="st0" d="M149.13,49.15v5.6h-0.41v-2.66h-3.74v2.66h-0.41v-5.6h0.41v2.57h3.74v-2.57H149.13z"/>
	<path class="st0" d="M156.29,51.95c0-1.62,1.24-2.84,2.91-2.84c1.66,0,2.91,1.21,2.91,2.84c0,1.63-1.25,2.84-2.91,2.84
		C157.53,54.78,156.29,53.57,156.29,51.95z M161.69,51.95c0-1.42-1.07-2.46-2.49-2.46c-1.43,0-2.5,1.05-2.5,2.46
		c0,1.42,1.07,2.46,2.5,2.46C160.62,54.41,161.69,53.36,161.69,51.95z"/>
	<path class="st0" d="M165.77,49.52v2.39h2.98v0.37h-2.98v2.47h-0.41v-5.6h3.74v0.37H165.77z"/>
	<path class="st0" d="M175.62,51.95c0-1.62,1.24-2.84,2.91-2.84c1.66,0,2.91,1.21,2.91,2.84c0,1.63-1.25,2.84-2.91,2.84
		C176.85,54.78,175.62,53.57,175.62,51.95z M181.02,51.95c0-1.42-1.07-2.46-2.49-2.46c-1.43,0-2.5,1.05-2.5,2.46
		c0,1.42,1.07,2.46,2.5,2.46C179.95,54.41,181.02,53.36,181.02,51.95z"/>
	<path class="st0" d="M184.16,51.95c0-1.63,1.24-2.84,2.9-2.84c0.79,0,1.5,0.26,1.99,0.78l-0.26,0.26
		c-0.48-0.47-1.06-0.66-1.72-0.66c-1.43,0-2.51,1.06-2.51,2.46s1.08,2.46,2.51,2.46c0.66,0,1.24-0.2,1.72-0.67l0.26,0.26
		c-0.49,0.52-1.2,0.78-1.99,0.78C185.4,54.78,184.16,53.58,184.16,51.95z"/>
	<path class="st0" d="M195.57,53.17h-3.25l-0.71,1.58h-0.44l2.57-5.6h0.41l2.57,5.6h-0.44L195.57,53.17z M195.42,52.83l-1.47-3.23
		l-1.46,3.23H195.42z"/>
	<path class="st0" d="M199.59,49.15H200v5.23h3.22v0.37h-3.63V49.15z"/>
	<path class="st0" d="M209.58,53.17h-3.25l-0.71,1.58h-0.44l2.57-5.6h0.41l2.57,5.6h-0.44L209.58,53.17z M209.43,52.83l-1.47-3.23
		l-1.46,3.23H209.43z"/>
</g>
</svg>
