<?xml version="1.0" encoding="UTF-8"?><svg id="Layer_1" xmlns="http://www.w3.org/2000/svg" viewBox="0 0 90 17.11"><defs><style>.cls-1{fill:#3d95ce;}</style></defs><path class="cls-1" d="M14.79,0c.61,1,.88,2.04,.88,3.34,0,4.16-3.56,9.57-6.44,13.37H2.63L0,.91,5.77,.36l1.4,11.25c1.31-2.13,2.92-5.47,2.92-7.75,0-1.25-.21-2.1-.55-2.8L14.79,0Zm7.48,6.96c1.06,0,3.74-.49,3.74-2.01,0-.73-.52-1.09-1.12-1.09-1.06,0-2.46,1.28-2.61,3.1h0Zm-.12,3c0,1.85,1.03,2.58,2.4,2.58,1.5,0,2.92-.36,4.77-1.31l-.7,4.74c-1.31,.64-3.34,1.06-5.32,1.06-5,0-6.81-3.04-6.81-6.84C16.5,5.28,19.42,.05,25.43,.05c3.3,0,5.16,1.85,5.16,4.44,0,4.17-5.35,5.44-8.44,5.47h0ZM47.25,3.71c0,.61-.09,1.5-.18,2.07l-1.73,10.94h-5.62l1.58-10.03,.12-1.12c0-.73-.46-.91-1-.91-.73,0-1.46,.33-1.94,.58l-1.79,11.5h-5.65L33.61,.34h4.9l.06,1.31c1.15-.76,2.67-1.58,4.83-1.58,2.86,0,3.86,1.46,3.86,3.65h0Zm16.68-1.87c1.6-1.15,3.13-1.79,5.22-1.79,2.89,0,3.9,1.46,3.9,3.65,0,.61-.09,1.5-.18,2.07l-1.73,10.94h-5.64l1.6-10.24,.09-.82c0-.82-.46-1-1-1-.7,0-1.4,.3-1.91,.58l-1.8,11.5h-5.62l1.6-10.24,.1-.82c0-.82-.46-1-1-1-.73,0-1.46,.33-1.94,.58l-1.79,11.5h-5.65L50.74,.36h4.83l.15,1.37c1.12-.82,2.64-1.64,4.68-1.64,1.76,0,2.92,.76,3.49,1.79l.03-.02Zm20.3,4.77c0-1.34-.33-2.25-1.34-2.25-2.22,0-2.67,3.92-2.67,5.93,0,1.52,.43,2.46,1.43,2.46,2.1,0,2.58-4.14,2.58-6.14h0Zm-9.72,3.44C74.51,4.89,77.24,.06,83.53,.06c4.74,0,6.47,2.8,6.47,6.66,0,5.11-2.7,10.4-9.14,10.4-4.77,0-6.35-3.13-6.35-7.05h0Z"/></svg>